# Blender v3.0.1 OBJ File: ''
# www.blender.org
mtllib vessel.mtl
o Icosphere
v 0.000000 -1.386750 0.000000
v 2.073200 -0.620182 3.514454
v -0.791876 0.016719 6.813384
v -2.562611 -0.620176 0.000000
v -0.791876 -0.620182 -5.686558
v 2.073200 -0.620182 -3.514454
v 0.791876 0.620182 5.686558
v -2.073200 0.620182 3.514454
v -2.073200 0.620182 -3.514454
v 1.134823 1.208091 -6.764391
v 2.562611 0.620176 0.000000
v 0.032662 1.190781 -0.000000
v -0.465450 -1.179645 3.342449
v 1.218588 -1.179645 2.065730
v 0.753143 -0.729067 5.408212
v 2.437182 -0.729065 0.000000
v 1.218588 -1.179645 -2.065730
v -1.506263 -1.179642 0.000000
v -1.971724 -0.729065 3.342461
v -0.465450 -1.179645 -3.342449
v -1.971724 -0.729065 -3.342461
v 1.161413 -0.729067 -5.489866
v 2.724866 0.000000 2.065738
v 2.724866 0.000000 -2.065738
v -0.000000 1.110495 7.648479
v 1.684058 0.326616 5.408246
v -2.724866 0.000000 2.065738
v -1.684058 0.620570 5.489900
v -1.684058 0.000000 -5.408246
v -2.724866 0.000000 -2.065738
v 2.353621 0.000000 -6.633056
v -1.388118 0.000000 -6.652300
v 1.971724 0.729065 3.342461
v -0.753143 1.121006 5.359220
v -2.437182 0.729065 0.000000
v -0.802135 1.218991 -5.408212
v 1.759424 0.729065 -4.648925
v 0.465450 1.179645 3.342449
v 1.506263 1.179642 0.000000
v -1.218588 1.179645 2.065730
v -1.218588 1.179645 -2.065730
v 0.465450 1.163315 -5.661424
v -1.000000 -1.000000 1.000000
v -1.000000 1.000000 1.000000
v -1.000000 -1.000000 -1.000000
v -1.000000 1.000000 -1.000000
v 1.000000 -1.000000 1.000000
v 1.000000 1.000000 1.000000
v 1.000000 -1.000000 -1.000000
v 1.000000 1.000000 -1.000000
v -1.000000 -1.000000 1.000000
v -1.000000 1.000000 1.000000
v -1.000000 -1.000000 -1.000000
v -1.000000 1.000000 -1.000000
v 1.000000 -1.000000 1.000000
v 1.000000 1.000000 1.000000
v 1.000000 -1.000000 -1.000000
v 1.000000 1.000000 -1.000000
vt 0.181819 0.000000
vt 0.227273 0.078731
vt 0.136365 0.078731
vt 0.272728 0.157461
vt 0.318182 0.078731
vt 0.363637 0.157461
vt 0.909091 0.000000
vt 0.954545 0.078731
vt 0.863636 0.078731
vt 0.727273 0.000000
vt 0.772727 0.078731
vt 0.681818 0.078731
vt 0.545455 0.000000
vt 0.590909 0.078731
vt 0.500000 0.078731
vt 0.318182 0.236191
vt 0.090910 0.157461
vt 0.181819 0.157461
vt 0.136365 0.236191
vt 0.818182 0.157461
vt 0.909091 0.157461
vt 0.863636 0.236191
vt 0.636364 0.157461
vt 0.727273 0.157461
vt 0.681818 0.236191
vt 0.454546 0.157461
vt 0.545455 0.157461
vt 0.500000 0.236191
vt 0.227273 0.236191
vt 0.045455 0.236191
vt 0.772727 0.236191
vt 0.590909 0.236191
vt 0.409092 0.236191
vt 0.181819 0.314921
vt 0.272728 0.314921
vt 0.227273 0.393651
vt 0.000000 0.314921
vt 0.090910 0.314921
vt 0.045455 0.393651
vt 0.727273 0.314921
vt 0.818182 0.314921
vt 0.772727 0.393651
vt 0.545455 0.314921
vt 0.636364 0.314921
vt 0.590909 0.393651
vt 0.363637 0.314921
vt 0.454546 0.314921
vt 0.409092 0.393651
vt 0.500000 0.393651
vt 0.454546 0.472382
vt 0.681818 0.393651
vt 0.636364 0.472382
vt 0.863636 0.393651
vt 0.818182 0.472382
vt 0.909091 0.314921
vt 0.136365 0.393651
vt 0.090910 0.472382
vt 0.318182 0.393651
vt 0.272728 0.472382
vt 0.954545 0.236191
vt 1.000000 0.157461
vt 0.409092 0.078731
vt 0.363637 0.000000
vt 0.375000 0.000000
vt 0.625000 0.000000
vt 0.625000 0.250000
vt 0.375000 0.250000
vt 0.625000 0.500000
vt 0.375000 0.500000
vt 0.625000 0.750000
vt 0.375000 0.750000
vt 0.625000 1.000000
vt 0.375000 1.000000
vt 0.125000 0.500000
vt 0.125000 0.750000
vt 0.875000 0.500000
vt 0.875000 0.750000
vt 0.375000 0.000000
vt 0.625000 0.000000
vt 0.625000 0.250000
vt 0.375000 0.250000
vt 0.625000 0.500000
vt 0.375000 0.500000
vt 0.625000 0.750000
vt 0.375000 0.750000
vt 0.625000 1.000000
vt 0.375000 1.000000
vt 0.125000 0.500000
vt 0.125000 0.750000
vt 0.875000 0.500000
vt 0.875000 0.750000
vn 0.0523 -0.9962 0.0690
vn 0.4546 -0.8876 0.0746
vn -0.1361 -0.9898 0.0424
vn -0.1361 -0.9898 -0.0424
vn 0.0523 -0.9962 -0.0690
vn 0.7943 -0.5991 0.1008
vn 0.2660 -0.6992 0.6636
vn -0.7877 -0.6043 0.1196
vn -0.6060 -0.7199 -0.3384
vn 0.4141 -0.8992 -0.1416
vn 0.9194 -0.2421 0.3099
vn -0.7958 0.1235 0.5928
vn -0.9674 -0.2531 0.0000
vn -0.5944 -0.7916 -0.1414
vn 0.7564 -0.6512 -0.0615
vn 0.2816 0.9414 0.1855
vn -0.4485 0.8903 0.0792
vn -0.4546 0.8876 -0.0746
vn 0.0589 0.9954 0.0762
vn 0.4672 0.8821 -0.0601
vn 0.0076 1.0000 -0.0043
vn 0.3662 0.9279 -0.0700
vn 0.1992 0.9668 0.1601
vn -0.0008 1.0000 -0.0049
vn 0.0474 0.9987 0.0177
vn -0.4860 0.8725 -0.0503
vn -0.0089 1.0000 0.0000
vn -0.3468 0.9379 0.0000
vn -0.4546 0.8876 0.0746
vn -0.0028 1.0000 0.0037
vn -0.0151 0.9997 0.0199
vn 0.2665 0.9452 0.1885
vn 0.0076 1.0000 0.0024
vn 0.2855 0.9543 0.0889
vn 0.4674 0.8824 0.0539
vn 0.7840 0.6088 -0.1212
vn 0.6933 0.7184 -0.0564
vn 0.7058 0.7068 -0.0483
vn -0.3806 0.7438 -0.5495
vn -0.7955 0.5756 -0.1892
vn -0.7627 0.5518 -0.3374
vn -0.7943 0.5991 -0.1008
vn -0.9302 0.3671 0.0000
vn -0.7943 0.5991 0.1008
vn -0.4616 0.8824 0.0908
vn -0.4513 0.8793 0.1525
vn 0.3264 0.9396 -0.1031
vn 0.3675 0.9019 0.2269
vn 0.8419 0.4954 0.2138
vn 0.7877 0.6043 0.1196
vn 0.0051 -0.1030 -0.9947
vn 0.0028 -0.8444 -0.5357
vn 0.0080 -0.8392 -0.5438
vn -0.9123 0.2950 -0.2841
vn -0.8655 -0.4221 -0.2695
vn -0.7877 -0.6043 -0.1196
vn -0.8488 0.5016 0.1671
vn -0.8827 -0.3355 0.3291
vn -0.8311 -0.4139 0.3714
vn 0.2738 0.9533 -0.1277
vn 0.5870 -0.5177 0.6224
vn 0.6749 -0.5952 0.4362
vn 0.9674 0.2531 0.0000
vn 0.9302 -0.3671 0.0000
vn 0.7943 -0.5991 -0.1008
vn 0.3839 -0.9146 -0.1268
vn 0.0997 -0.9863 -0.1315
vn -0.0313 -0.9732 -0.2279
vn -0.2816 -0.9414 -0.1855
vn -0.2855 -0.9543 -0.0889
vn -0.4674 -0.8824 -0.0539
vn -0.4674 -0.8824 0.0539
vn -0.2855 -0.9543 0.0889
vn -0.2743 -0.9168 0.2902
vn 0.4546 -0.8876 -0.0746
vn 0.3468 -0.9379 0.0000
vn 0.1676 -0.9859 0.0000
vn -0.1732 -0.9360 0.3063
vn 0.1123 -0.9826 0.1481
vn 0.3212 -0.9316 0.1703
vn -1.0000 0.0000 0.0000
vn 0.0000 0.0000 -1.0000
vn 1.0000 0.0000 0.0000
vn 0.0000 0.0000 1.0000
vn 0.0000 -1.0000 0.0000
vn 0.0000 1.0000 0.0000
usemtl None
s off
f 1/1/1 14/2/1 13/3/1
f 2/4/2 14/5/2 16/6/2
f 1/7/3 13/8/3 18/9/3
f 1/10/4 18/11/4 20/12/4
f 1/13/5 20/14/5 17/15/5
f 2/4/6 16/6/6 23/16/6
f 3/17/7 15/18/7 25/19/7
f 4/20/8 19/21/8 27/22/8
f 5/23/9 21/24/9 29/25/9
f 6/26/10 22/27/10 31/28/10
f 2/4/11 23/16/11 26/29/11
f 3/17/12 25/19/12 28/30/12
f 4/20/13 27/22/13 30/31/13
f 5/23/14 29/25/14 32/32/14
f 6/26/15 31/28/15 24/33/15
f 7/34/16 33/35/16 38/36/16
f 8/37/17 34/38/17 40/39/17
f 9/40/18 35/41/18 41/42/18
f 10/43/19 36/44/19 42/45/19
f 11/46/20 37/47/20 39/48/20
f 39/48/21 42/49/21 12/50/21
f 39/48/22 37/47/22 42/49/22
f 37/47/23 10/43/23 42/49/23
f 42/45/24 41/51/24 12/52/24
f 42/45/25 36/44/25 41/51/25
f 36/44/26 9/40/26 41/51/26
f 41/42/27 40/53/27 12/54/27
f 41/42/28 35/41/28 40/53/28
f 35/41/29 8/55/29 40/53/29
f 40/39/30 38/56/30 12/57/30
f 40/39/31 34/38/31 38/56/31
f 34/38/32 7/34/32 38/56/32
f 38/36/33 39/58/33 12/59/33
f 38/36/34 33/35/34 39/58/34
f 33/35/35 11/46/35 39/58/35
f 24/33/36 37/47/36 11/46/36
f 24/33/37 31/28/37 37/47/37
f 31/28/38 10/43/38 37/47/38
f 32/32/39 36/44/39 10/43/39
f 32/32/40 29/25/40 36/44/40
f 29/25/41 9/40/41 36/44/41
f 30/31/42 35/41/42 9/40/42
f 30/31/43 27/22/43 35/41/43
f 27/22/44 8/55/44 35/41/44
f 28/30/45 34/38/45 8/37/45
f 28/30/46 25/19/46 34/38/46
f 25/19/47 7/34/47 34/38/47
f 26/29/48 33/35/48 7/34/48
f 26/29/49 23/16/49 33/35/49
f 23/16/50 11/46/50 33/35/50
f 31/28/51 32/32/51 10/43/51
f 31/28/52 22/27/52 32/32/52
f 22/27/53 5/23/53 32/32/53
f 29/25/54 30/31/54 9/40/54
f 29/25/55 21/24/55 30/31/55
f 21/24/56 4/20/56 30/31/56
f 27/22/57 28/60/57 8/55/57
f 27/22/58 19/21/58 28/60/58
f 19/21/59 3/61/59 28/60/59
f 25/19/60 26/29/60 7/34/60
f 25/19/61 15/18/61 26/29/61
f 15/18/62 2/4/62 26/29/62
f 23/16/63 24/33/63 11/46/63
f 23/16/64 16/6/64 24/33/64
f 16/6/65 6/26/65 24/33/65
f 17/15/66 22/27/66 6/26/66
f 17/15/67 20/14/67 22/27/67
f 20/14/68 5/23/68 22/27/68
f 20/12/69 21/24/69 5/23/69
f 20/12/70 18/11/70 21/24/70
f 18/11/71 4/20/71 21/24/71
f 18/9/72 19/21/72 4/20/72
f 18/9/73 13/8/73 19/21/73
f 13/8/74 3/61/74 19/21/74
f 16/6/75 17/62/75 6/26/75
f 16/6/76 14/5/76 17/62/76
f 14/5/77 1/63/77 17/62/77
f 13/3/78 15/18/78 3/17/78
f 13/3/79 14/2/79 15/18/79
f 14/2/80 2/4/80 15/18/80
f 43/64/81 44/65/81 46/66/81 45/67/81
f 45/67/82 46/66/82 50/68/82 49/69/82
f 49/69/83 50/68/83 48/70/83 47/71/83
f 47/71/84 48/70/84 44/72/84 43/73/84
f 45/74/85 49/69/85 47/71/85 43/75/85
f 50/68/86 46/76/86 44/77/86 48/70/86
f 51/78/81 52/79/81 54/80/81 53/81/81
f 53/81/82 54/80/82 58/82/82 57/83/82
f 57/83/83 58/82/83 56/84/83 55/85/83
f 55/85/84 56/84/84 52/86/84 51/87/84
f 53/88/85 57/83/85 55/85/85 51/89/85
f 58/82/86 54/90/86 52/91/86 56/84/86
o Cube_Cube.001
v -1.140788 0.982803 -2.210612
v -1.150883 2.530359 -2.224712
v -1.140788 0.982803 -4.123240
v -1.140788 2.525647 -4.123240
v 1.140788 0.982803 -2.210612
v 1.140788 2.525647 -2.210612
v 1.140788 0.982803 -4.123240
v 1.140788 2.525647 -4.123240
v -1.150600 2.804121 -2.225050
v -1.140505 2.799408 -4.123578
v 1.141071 2.799408 -2.210949
v 1.141071 2.799408 -4.123578
v 1.140788 2.525647 -3.166926
v 1.141071 2.799408 -3.167264
v 1.140930 2.662528 -4.123409
v 1.140930 2.662528 -2.210781
v 1.140930 2.662528 -3.167095
v 2.140788 2.524613 -2.210612
v 2.141071 2.798374 -2.210949
v 2.140788 2.524613 -3.166926
v 2.141071 2.798374 -3.167264
v 2.140929 2.661494 -2.210781
v 2.140929 2.661494 -3.167095
v -1.145836 2.528003 -3.173976
v -1.145552 2.801764 -3.174314
v -1.150741 2.667240 -2.224881
v -1.140647 2.662528 -4.123409
v -1.145694 2.664884 -3.174145
v -1.150883 2.530359 -2.224712
v -1.150600 2.804121 -2.225050
v -1.145836 2.528003 -3.173976
v -1.145552 2.801764 -3.174314
v -1.150741 2.667240 -2.224881
v -1.145694 2.664884 -3.174145
v -2.150868 2.531387 -2.230031
v -2.150585 2.805148 -2.230369
v -2.145821 2.529031 -3.179296
v -2.145538 2.802792 -3.179634
v -2.150727 2.668267 -2.230200
v -2.145679 2.665911 -3.179465
v -1.143029 2.800586 -3.648946
v 0.000283 2.799408 -4.123578
v 1.141071 2.799408 -2.689107
v -0.004764 2.801764 -2.218000
v 1.141071 2.799408 -3.645421
v -1.148076 2.802943 -2.699682
v -1.141767 2.799997 -3.886262
v 0.570677 2.799408 -4.123578
v 1.141071 2.799408 -2.450028
v -0.577682 2.802943 -2.221525
v 1.141071 2.799408 -3.406343
v -1.146814 2.802353 -2.936998
v -1.144291 2.801176 -3.411630
v -0.570111 2.799408 -4.123578
v 1.141071 2.799408 -2.928185
v 0.568154 2.800586 -2.214475
v 1.141071 2.799408 -3.884500
v -1.149338 2.803532 -2.462366
v -1.141654 2.909144 -3.886397
v -1.140392 2.908555 -4.123713
v 0.570790 2.908555 -4.123713
v 1.141184 2.908555 -4.123713
v 1.141184 2.908555 -2.450163
v 1.141184 2.908555 -2.211084
v -0.577569 2.912089 -2.221659
v -1.150487 2.913267 -2.225184
v 1.141184 2.908555 -3.406477
v 1.141184 2.908555 -3.167398
v -1.146701 2.911500 -2.937133
v -1.145440 2.910911 -3.174448
v -1.144178 2.910322 -3.411765
v -1.142916 2.909733 -3.649081
v -0.569998 2.908555 -4.123713
v 0.000396 2.908555 -4.123713
v 1.141184 2.908555 -2.928320
v 1.141184 2.908555 -2.689241
v 0.568266 2.909733 -2.214609
v -0.004651 2.910911 -2.218134
v 1.141184 2.908555 -3.884634
v 1.141184 2.908555 -3.645555
v -1.149225 2.912678 -2.462500
v -1.147963 2.912089 -2.699816
v -1.141530 3.029358 -3.886545
v -1.140268 3.028769 -4.123861
v 0.570914 3.028769 -4.123861
v 1.141309 3.028769 -4.123861
v 1.141309 3.028769 -2.450311
v 1.141309 3.028769 -2.211232
v -0.577445 3.032303 -2.221807
v -1.150363 3.033481 -2.225333
v 1.141309 3.028769 -3.406625
v 1.141309 3.028769 -3.167547
v -1.146577 3.031714 -2.937281
v -1.145315 3.031125 -3.174597
v -1.144053 3.030536 -3.411913
v -1.142792 3.029947 -3.649229
v -0.569874 3.028769 -4.123861
v 0.000520 3.028769 -4.123861
v 1.141309 3.028769 -2.928468
v 1.141309 3.028769 -2.689390
v 0.568391 3.029947 -2.214757
v -0.004527 3.031125 -2.218283
v 1.141309 3.028769 -3.884783
v 1.141309 3.028769 -3.645704
v -1.149101 3.032892 -2.462649
v -1.147839 3.032303 -2.699965
vt 0.375000 0.000000
vt 0.625000 0.000000
vt 0.625000 0.125000
vt 0.625000 0.250000
vt 0.375000 0.250000
vt 0.625000 0.500000
vt 0.375000 0.500000
vt 0.625000 0.625000
vt 0.625000 0.750000
vt 0.375000 0.750000
vt 0.625000 1.000000
vt 0.375000 1.000000
vt 0.125000 0.500000
vt 0.125000 0.750000
vt 0.625000 0.625000
vt 0.625000 0.500000
vt 0.625000 0.500000
vt 0.625000 0.531250
vt 0.625000 0.562500
vt 0.625000 0.593750
vt 0.625000 0.625000
vt 0.625000 0.218750
vt 0.625000 0.187500
vt 0.625000 0.187500
vt 0.625000 0.218750
vt 0.875000 0.750000
vt 0.875000 0.718750
vt 0.875000 0.687500
vt 0.875000 0.656250
vt 0.875000 0.625000
vt 0.875000 0.625000
vt 0.875000 0.750000
vt 0.625000 0.750000
vt 0.625000 0.750000
vt 0.625000 0.812500
vt 0.625000 0.875000
vt 0.625000 0.937500
vt 0.625000 1.000000
vt 0.625000 1.000000
vt 0.625000 0.250000
vt 0.625000 0.250000
vt 0.625000 0.312500
vt 0.625000 0.375000
vt 0.625000 0.437500
vt 0.625000 0.625000
vt 0.625000 0.750000
vt 0.625000 0.750000
vt 0.625000 0.750000
vt 0.625000 0.625000
vt 0.625000 0.625000
vt 0.625000 0.656250
vt 0.625000 0.687500
vt 0.625000 0.718750
vt 0.625000 0.125000
vt 0.625000 0.125000
vt 0.625000 0.156250
vt 0.625000 0.125000
vt 0.625000 0.125000
vt 0.875000 0.625000
vt 0.875000 0.750000
vt 0.625000 0.125000
vt 0.625000 0.125000
vt 0.625000 0.125000
vt 0.625000 1.000000
vt 0.625000 1.000000
vt 0.625000 1.000000
vt 0.625000 0.000000
vt 0.625000 0.000000
vt 0.625000 0.000000
vt 0.625000 0.125000
vt 0.625000 0.000000
vt 0.625000 1.000000
vt 0.625000 1.000000
vt 0.625000 1.000000
vt 0.625000 1.000000
vt 0.625000 0.937500
vt 0.625000 0.937500
vt 0.625000 1.000000
vt 0.875000 0.656250
vt 0.875000 0.625000
vt 0.625000 0.625000
vt 0.625000 0.656250
vt 0.625000 0.250000
vt 0.625000 0.375000
vt 0.625000 0.437500
vt 0.625000 0.156250
vt 0.625000 0.750000
vt 0.625000 0.812500
vt 0.625000 0.500000
vt 0.625000 0.687500
vt 0.625000 0.718750
vt 0.625000 0.593750
vt 0.625000 0.312500
vt 0.625000 0.531250
vt 0.625000 0.875000
vt 0.875000 0.750000
vt 0.875000 0.718750
vt 0.625000 0.562500
vt 0.875000 0.687500
vt 0.625000 0.125000
vt 0.625000 0.500000
vt 0.687500 0.500000
vt 0.750000 0.500000
vt 0.812500 0.500000
vt 0.875000 0.500000
vt 0.875000 0.531250
vt 0.875000 0.562500
vt 0.875000 0.593750
vt 0.875000 0.625000
vt 0.875000 0.656250
vt 0.875000 0.687500
vt 0.875000 0.718750
vt 0.875000 0.750000
vt 0.812500 0.750000
vt 0.750000 0.750000
vt 0.687500 0.750000
vt 0.625000 0.750000
vt 0.625000 0.718750
vt 0.625000 0.687500
vt 0.625000 0.656250
vt 0.625000 0.625000
vt 0.625000 0.593750
vt 0.625000 0.562500
vt 0.625000 0.531250
vt 0.625000 0.125000
vt 0.625000 0.156250
vt 0.625000 0.250000
vt 0.625000 0.312500
vt 0.625000 0.187500
vt 0.625000 0.218750
vt 0.625000 0.375000
vt 0.625000 0.437500
vt 0.625000 0.812500
vt 0.625000 0.875000
vn -1.0000 -0.0033 -0.0026
vn 0.0000 0.0000 -1.0000
vn 1.0000 0.0000 0.0000
vn -0.0031 0.0046 1.0000
vn 0.0000 -1.0000 0.0000
vn 1.0000 -0.0010 0.0000
vn -1.0000 0.0010 -0.0053
vn 0.0000 0.0000 1.0000
vn -0.0062 0.0012 1.0000
vn 0.0000 -0.0012 -1.0000
vn -0.0010 -1.0000 0.0000
vn 0.0000 0.0012 1.0000
vn 0.0010 1.0000 0.0000
vn 0.0010 1.0000 -0.0025
vn 0.0053 -0.0012 -1.0000
vn -0.0053 0.0012 1.0000
vn -0.0010 -1.0000 0.0025
vn -0.0061 0.0012 1.0000
vn 0.0010 1.0000 -0.0012
usemtl None
s off
f 59/92/87 60/93/87 82/94/87 62/95/87 61/96/87
f 61/96/88 62/95/88 66/97/88 65/98/88
f 65/98/89 66/97/89 71/99/89 64/100/89 63/101/89
f 63/101/90 64/100/90 60/102/90 59/103/90
f 61/104/91 65/98/91 63/101/91 59/105/91
f 75/106/92 73/107/92 70/108/92 115/109/92 103/110/92 109/111/92 72/112/92
f 105/113/93 99/114/93 130/115/93 117/116/93
f 67/117/94 116/118/94 104/119/94 110/120/94 83/121/94 90/122/94 88/123/94
f 60/102/95 64/100/95 74/124/95 69/125/95 114/126/95 102/127/95 108/128/95 67/129/95 84/130/95
f 66/97/96 62/95/96 85/131/96 68/132/96 112/133/96 100/134/96 106/135/96 70/108/96 73/107/96
f 64/100/97 71/99/97 78/136/97 76/137/97
f 69/125/98 74/124/98 80/138/98 77/139/98
f 71/99/92 66/97/92 73/107/92 75/106/92
f 80/138/92 81/140/92 79/141/92 77/139/92
f 76/137/92 78/136/92 81/140/92 80/138/92
f 74/124/98 64/100/98 76/137/98 80/138/98
f 75/106/96 72/112/96 79/141/96 81/140/96
f 71/99/96 75/106/96 81/140/96 78/136/96
f 72/112/99 113/142/99 101/143/99 107/144/99 69/125/99 77/139/99 79/141/99
f 85/131/93 86/145/93 83/146/93 111/147/93 99/114/93 105/113/93 68/132/93
f 62/95/93 82/94/93 86/145/93 85/131/93
f 86/145/94 82/94/94 89/148/94 92/149/94
f 88/123/100 90/122/100 96/150/100 94/151/100
f 90/152/101 92/149/101 98/153/101 96/154/101
f 83/146/94 86/145/94 92/149/94 90/152/94
f 60/102/94 84/130/94 91/155/94 87/156/94
f 84/130/94 67/129/94 88/157/94 91/155/94
f 82/94/94 60/93/94 87/158/94 89/148/94
f 98/153/93 97/159/93 94/160/93 96/154/93
f 95/161/93 93/162/93 97/159/93 98/153/93
f 91/155/102 88/157/102 94/163/102 97/164/102
f 92/149/101 89/148/101 95/161/101 98/153/101
f 87/156/102 91/155/102 97/164/102 93/165/102
f 89/148/103 87/158/103 93/162/103 95/161/103
f 124/166/95 123/167/95 147/168/95 148/169/95
f 83/121/93 110/120/93 127/170/93 128/171/93
f 113/142/92 72/112/92 126/172/92 133/173/92
f 68/132/93 105/113/93 117/116/93 118/174/93
f 106/135/96 100/134/96 132/175/96 119/176/96
f 99/114/93 111/147/93 129/177/93 130/115/93
f 114/126/95 69/125/95 122/178/95 135/179/95
f 70/108/96 106/135/96 119/176/96 120/180/96
f 107/144/92 101/143/92 134/181/92 121/182/92
f 72/112/92 109/111/92 125/183/92 126/172/92
f 100/134/96 112/133/96 131/184/96 132/175/96
f 115/109/92 70/108/92 120/180/92 137/185/92
f 69/125/92 107/144/92 121/182/92 122/178/92
f 108/128/104 102/127/104 136/186/104 123/167/104
f 101/143/92 113/142/92 133/173/92 134/181/92
f 116/118/93 67/117/93 124/187/93 139/188/93
f 67/129/95 108/128/95 123/167/95 124/166/95
f 109/111/92 103/110/92 138/189/92 125/183/92
f 102/127/95 114/126/95 135/179/95 136/186/95
f 110/120/93 104/119/93 140/190/93 127/170/93
f 103/110/92 115/109/92 137/185/92 138/189/92
f 111/147/93 83/146/93 128/191/93 129/177/93
f 104/119/93 116/118/93 139/188/93 140/190/93
f 112/133/96 68/132/96 118/174/96 131/184/96
f 144/192/105 143/193/105 156/194/105 155/195/105 142/196/105 141/197/105 154/198/105 153/199/105 152/200/105 151/201/105 164/202/105 163/203/105 148/204/105 147/205/105 160/206/105 159/207/105 146/208/105 145/209/105 158/210/105 157/211/105 150/212/105 149/213/105 162/214/105 161/215/105
f 129/177/93 128/191/93 152/216/93 153/217/93
f 140/190/93 139/188/93 163/203/93 164/202/93
f 126/172/92 125/183/92 149/213/92 150/212/92
f 131/184/96 118/174/96 142/218/96 155/219/96
f 117/116/93 130/115/93 154/220/93 141/221/93
f 128/171/93 127/170/93 151/201/93 152/200/93
f 133/173/92 126/172/92 150/212/92 157/211/92
f 119/176/96 132/175/96 156/222/96 143/223/96
f 130/115/93 129/177/93 153/217/93 154/220/93
f 135/179/104 122/178/104 146/208/104 159/224/104
f 121/182/92 134/181/92 158/210/92 145/209/92
f 132/175/96 131/184/96 155/219/96 156/222/96
f 137/185/92 120/180/92 144/192/92 161/215/92
f 118/174/93 117/116/93 141/221/93 142/218/93
f 123/167/104 136/186/104 160/225/104 147/168/104
f 134/181/92 133/173/92 157/211/92 158/210/92
f 139/188/93 124/187/93 148/204/93 163/203/93
f 120/180/96 119/176/96 143/223/96 144/192/96
f 125/183/92 138/189/92 162/214/92 149/213/92
f 136/186/95 135/179/95 159/224/95 160/225/95
f 122/178/92 121/182/92 145/209/92 146/208/92
f 127/170/93 140/190/93 164/202/93 151/201/93
f 138/189/92 137/185/92 161/215/92 162/214/92
